<svg width="35" height="74" viewBox="0 0 35 74" fill="none" xmlns="http://www.w3.org/2000/svg">
<path d="M0 5.71429L35 0V29.1964L0 35V5.71429Z" fill="#4D53DF"/>
<path d="M16.904 7.704L13.784 7.608C13.808 8.04 13.76 8.592 13.712 9.072C13.448 11.448 13.016 14.976 13.016 18.12C13.016 21.648 13.712 25.2 14.432 27.36L17.192 26.544C16.4 24.12 15.704 21.432 15.704 17.64C15.704 14.664 16.112 11.208 16.568 8.976C16.664 8.592 16.76 8.16 16.904 7.704ZM12.608 10.344C11.144 10.344 9.056 10.152 8.192 10.032L8.264 12.792C9.392 12.84 11.264 12.96 12.536 12.96C16.16 12.96 21.2 12.6 24.488 12L24.464 9.24C20.792 10.128 17.168 10.344 12.608 10.344ZM22.976 13.872L20.024 13.152C20 13.68 19.832 14.712 19.664 15.216C18.704 18.528 17.072 20.664 15.32 22.272C13.856 23.64 12.248 24.432 11.12 24.432C10.328 24.432 10.016 24.024 10.016 23.232C10.016 21.624 11.72 19.32 14.12 18.192C15.296 17.664 17.024 17.04 19.208 17.04C22.448 17.04 24.2 18.768 24.2 20.808C24.2 23.184 22.304 25.512 17.672 26.016L19.28 28.56C25.16 27.648 27.176 24.36 27.176 20.952C27.176 17.208 23.864 14.616 19.376 14.616C17.576 14.616 15.608 14.976 14.024 15.552C10.208 16.944 7.184 20.472 7.184 23.856C7.184 26.304 8.648 27.36 10.4 27.36C12.488 27.36 14.576 26.304 16.136 25.152C18.416 23.472 20.888 20.232 22.256 15.912C22.424 15.408 22.784 14.304 22.976 13.872Z" fill="#240B87"/>
</svg>
