<svg width="35" height="42" viewBox="0 0 35 42" fill="none" xmlns="http://www.w3.org/2000/svg">
<path d="M0 11.7143L35 6V35.1964L0 41V11.7143Z" fill="#2634B0"/>
<path d="M23.584 33C22.6027 33 21.8133 32.7547 21.216 32.264C20.6187 31.752 20.2667 31.0267 20.16 30.088H20C19.7013 31.176 19.104 31.9973 18.208 32.552C17.3333 33.1067 16.256 33.384 14.976 33.384C13.376 33.384 12.0853 32.9573 11.104 32.104C10.144 31.2293 9.664 30.0133 9.664 28.456C9.664 26.728 10.2933 25.448 11.552 24.616C12.8107 23.784 14.656 23.368 17.088 23.368H19.744V22.536C19.744 21.5547 19.5093 20.8187 19.04 20.328C18.592 19.816 17.824 19.56 16.736 19.56C15.7333 19.56 14.9227 19.752 14.304 20.136C13.6853 20.52 13.152 21.0213 12.704 21.64L10.112 19.336C10.6667 18.3973 11.5307 17.6293 12.704 17.032C13.8987 16.4133 15.424 16.104 17.28 16.104C19.5413 16.104 21.3013 16.6267 22.56 17.672C23.84 18.696 24.48 20.2533 24.48 22.344V29.576H26.304V33H23.584ZM16.768 30.28C17.6 30.28 18.304 30.0773 18.88 29.672C19.456 29.2667 19.744 28.68 19.744 27.912V25.928H17.216C15.2747 25.928 14.304 26.5787 14.304 27.88V28.52C14.304 29.096 14.528 29.5333 14.976 29.832C15.424 30.1307 16.0213 30.28 16.768 30.28Z" fill="#959FFF"/>
</svg>
