<svg width="25" height="16" viewBox="0 0 25 16" fill="none" xmlns="http://www.w3.org/2000/svg">
<g clip-path="url(#clip0_13_38)">
<path d="M7.40572 0C8.1548 0 8.83772 0.0659245 9.45462 0.198023C10.0715 0.329997 10.6002 0.546499 11.0408 0.84678C11.4814 1.14744 11.8229 1.5471 12.0653 2.04578C12.3076 2.54446 12.4288 3.16025 12.4288 3.89341C12.4288 4.68538 12.2488 5.34525 11.8891 5.87302C11.529 6.40092 10.9968 6.83342 10.2919 7.17078C11.2612 7.44946 11.9845 7.93728 12.4619 8.63348C12.9389 9.33019 13.1781 10.1698 13.1781 11.1521C13.1781 11.9439 13.0239 12.6297 12.7153 13.209C12.407 13.7885 11.9918 14.2613 11.4707 14.6274C10.9493 14.9942 10.3544 15.2653 9.68622 15.4416C9.01386 15.6179 8.32147 15.7065 7.62632 15.7053H0.00335693V0H7.40572ZM6.96515 6.35709C7.58205 6.35709 8.08864 6.21051 8.48532 5.9171C8.88186 5.62393 9.08008 5.14723 9.08008 4.48736C9.08008 4.1209 9.01405 3.82012 8.88186 3.58552C8.74968 3.35104 8.57348 3.16737 8.35313 3.03565C8.13279 2.90355 7.87943 2.81228 7.59305 2.76059C7.29849 2.70865 6.9999 2.68291 6.70079 2.68368H3.46224V6.35722H6.96515V6.35709ZM7.16336 13.0217C7.50101 13.0217 7.82428 12.9886 8.13266 12.9227C8.44105 12.8566 8.71267 12.7466 8.94789 12.5926C9.18262 12.4389 9.36995 12.2297 9.50964 11.9657C9.64907 11.7018 9.71886 11.3646 9.71886 10.9538C9.71886 10.1476 9.49101 9.57203 9.03593 9.2273C8.58048 8.8827 7.97834 8.71027 7.22939 8.71027H3.46224V13.0215L7.16336 13.0217ZM17.5309 12.6918C18.0009 13.1468 18.6765 13.3737 19.5578 13.3737C20.1891 13.3737 20.7327 13.2164 21.1879 12.9008C21.6432 12.586 21.9223 12.2521 22.0251 11.9H24.7789C24.3385 13.2637 23.6626 14.2391 22.7522 14.8254C21.8413 15.4121 20.7397 15.7053 19.4474 15.7053C18.5515 15.7053 17.7435 15.5623 17.0239 15.2762C16.3041 14.9904 15.6945 14.5834 15.1955 14.0555C14.696 13.5278 14.3105 12.8976 14.0387 12.1641C13.7669 11.431 13.6313 10.6243 13.6313 9.74446C13.6313 8.89418 13.7705 8.10234 14.0499 7.36906C14.3286 6.63602 14.725 6.00175 15.2396 5.46624C15.7534 4.93123 16.3668 4.50958 17.0792 4.20156C17.7914 3.89354 18.5809 3.73972 19.4475 3.73972C20.4169 3.73972 21.2613 3.92663 21.9812 4.30057C22.7007 4.67439 23.2919 5.17719 23.7547 5.80722C24.2173 6.43787 24.5512 7.15655 24.7573 7.96275C24.9629 8.76945 25.0361 9.61249 24.9777 10.4924H16.7601C16.804 11.5039 17.0606 12.2375 17.5309 12.6918ZM21.0668 6.70894C20.6924 6.29853 20.123 6.09302 19.3596 6.09302C18.8601 6.09302 18.4453 6.17755 18.1149 6.34598C17.7844 6.51491 17.5199 6.72342 17.3216 6.97289C17.1235 7.22235 16.9837 7.48642 16.9031 7.76473C16.8222 8.04341 16.7744 8.29275 16.7598 8.51262H21.8489C21.7021 7.72065 21.4415 7.11959 21.0668 6.70894ZM16.2256 0.797461H22.5841V2.55769H16.2256V0.797461Z" fill="#2634B0"/>
</g>
<defs>
<clipPath id="clip0_13_38">
<rect width="25" height="15.7051" fill="white"/>
</clipPath>
</defs>
</svg>
