<svg width="27" height="22" viewBox="0 0 27 22" fill="none" xmlns="http://www.w3.org/2000/svg">
<path d="M1 3C1 1.89543 1.89543 1 3 1H24C25.1046 1 26 1.89543 26 3V19C26 20.1046 25.1046 21 24 21H3C1.89543 21 1 20.1046 1 19V3Z" stroke="#2634B0" stroke-width="2"/>
<path d="M3.35962 2H23.6404C24.3913 2 25 2.60872 25 3.35962C25 3.76518 24.819 4.14955 24.5063 4.40784L14.7738 12.4478C14.0344 13.0585 12.9656 13.0585 12.2262 12.4478L2.4937 4.40784C2.18104 4.14956 2 3.76518 2 3.35962C2 2.60872 2.60872 2 3.35962 2Z" stroke="#2634B0" stroke-width="2"/>
</svg>
