<svg width="53" height="82" viewBox="0 0 53 82" fill="none" xmlns="http://www.w3.org/2000/svg">
<path d="M0 23.7143L35 18V47.1964L0 53V23.7143Z" fill="#4D53DF"/>
<path d="M16.904 25.704L13.784 25.608C13.808 26.04 13.76 26.592 13.712 27.072C13.448 29.448 13.016 32.976 13.016 36.12C13.016 39.648 13.712 43.2 14.432 45.36L17.192 44.544C16.4 42.12 15.704 39.432 15.704 35.64C15.704 32.664 16.112 29.208 16.568 26.976C16.664 26.592 16.76 26.16 16.904 25.704ZM12.608 28.344C11.144 28.344 9.056 28.152 8.192 28.032L8.264 30.792C9.392 30.84 11.264 30.96 12.536 30.96C16.16 30.96 21.2 30.6 24.488 30L24.464 27.24C20.792 28.128 17.168 28.344 12.608 28.344ZM22.976 31.872L20.024 31.152C20 31.68 19.832 32.712 19.664 33.216C18.704 36.528 17.072 38.664 15.32 40.272C13.856 41.64 12.248 42.432 11.12 42.432C10.328 42.432 10.016 42.024 10.016 41.232C10.016 39.624 11.72 37.32 14.12 36.192C15.296 35.664 17.024 35.04 19.208 35.04C22.448 35.04 24.2 36.768 24.2 38.808C24.2 41.184 22.304 43.512 17.672 44.016L19.28 46.56C25.16 45.648 27.176 42.36 27.176 38.952C27.176 35.208 23.864 32.616 19.376 32.616C17.576 32.616 15.608 32.976 14.024 33.552C10.208 34.944 7.184 38.472 7.184 41.856C7.184 44.304 8.648 45.36 10.4 45.36C12.488 45.36 14.576 44.304 16.136 43.152C18.416 41.472 20.888 38.232 22.256 33.912C22.424 33.408 22.784 32.304 22.976 31.872Z" fill="#240B87"/>
<path d="M18 11.7143L53 6V35.1964L18 41V11.7143Z" fill="#2634B0"/>
<path d="M41.9903 33C41.0089 33 40.2196 32.7547 39.6223 32.264C39.0249 31.752 38.6729 31.0267 38.5663 30.088H38.4063C38.1076 31.176 37.5103 31.9973 36.6143 32.552C35.7396 33.1067 34.6623 33.384 33.3823 33.384C31.7823 33.384 30.4916 32.9573 29.5103 32.104C28.5503 31.2293 28.0703 30.0133 28.0703 28.456C28.0703 26.728 28.6996 25.448 29.9583 24.616C31.2169 23.784 33.0623 23.368 35.4943 23.368H38.1503V22.536C38.1503 21.5547 37.9156 20.8187 37.4463 20.328C36.9983 19.816 36.2303 19.56 35.1423 19.56C34.1396 19.56 33.3289 19.752 32.7103 20.136C32.0916 20.52 31.5583 21.0213 31.1102 21.64L28.5182 19.336C29.0729 18.3973 29.9369 17.6293 31.1102 17.032C32.3049 16.4133 33.8303 16.104 35.6863 16.104C37.9476 16.104 39.7076 16.6267 40.9663 17.672C42.2463 18.696 42.8863 20.2533 42.8863 22.344V29.576H44.7103V33H41.9903ZM35.1743 30.28C36.0063 30.28 36.7103 30.0773 37.2863 29.672C37.8623 29.2667 38.1503 28.68 38.1503 27.912V25.928H35.6223C33.6809 25.928 32.7103 26.5787 32.7103 27.88V28.52C32.7103 29.096 32.9343 29.5333 33.3823 29.832C33.8303 30.1307 34.4276 30.28 35.1743 30.28Z" fill="#959FFF"/>
</svg>
