<svg width="383" height="31" viewBox="0 0 383 31" fill="none" xmlns="http://www.w3.org/2000/svg">
<path d="M0.679993 30V2.08H6.71999V25.08H18.72V30H0.679993Z" fill="#878992"/>
<path d="M40.4644 26.24H40.2244C39.771 27.4133 39.051 28.4133 38.0644 29.24C37.1044 30.0667 35.7977 30.48 34.1444 30.48C33.1577 30.48 32.251 30.32 31.4244 30C30.5977 29.6533 29.891 29.1467 29.3044 28.48C28.7177 27.8133 28.251 27 27.9044 26.04C27.5844 25.08 27.4244 23.9733 27.4244 22.72V9.36H33.3444V21.92C33.3444 24.5867 34.5044 25.92 36.8244 25.92C37.2777 25.92 37.7177 25.8667 38.1444 25.76C38.5977 25.6267 38.9844 25.44 39.3044 25.2C39.651 24.9333 39.931 24.6133 40.1444 24.24C40.3577 23.8667 40.4644 23.4267 40.4644 22.92V9.36H46.3844V30H40.4644V26.24Z" fill="#878992"/>
<path d="M65.8087 30.48C64.1821 30.48 62.7154 30.24 61.4087 29.76C60.1287 29.2533 59.0354 28.5333 58.1287 27.6C57.2487 26.6667 56.5687 25.5333 56.0887 24.2C55.6087 22.8667 55.3687 21.36 55.3687 19.68C55.3687 18 55.6087 16.4933 56.0887 15.16C56.5687 13.8267 57.2487 12.6933 58.1287 11.76C59.0354 10.8267 60.1287 10.12 61.4087 9.64C62.7154 9.13334 64.1687 8.88 65.7687 8.88C68.0354 8.88 69.8487 9.34667 71.2087 10.28C72.5954 11.1867 73.6487 12.4 74.3687 13.92L69.8087 16.4C69.4354 15.6 68.9421 14.9333 68.3287 14.4C67.7421 13.8667 66.8887 13.6 65.7687 13.6C64.4087 13.6 63.3554 14 62.6087 14.8C61.8887 15.5733 61.5287 16.64 61.5287 18V21.36C61.5287 22.72 61.8887 23.8 62.6087 24.6C63.3554 25.3733 64.4354 25.76 65.8487 25.76C66.9954 25.76 67.8887 25.4933 68.5287 24.96C69.1954 24.4267 69.7554 23.7333 70.2087 22.88L74.6887 25.44C73.9421 26.96 72.8487 28.1867 71.4087 29.12C69.9954 30.0267 68.1287 30.48 65.8087 30.48Z" fill="#878992"/>
<path d="M100.433 30C99.2065 30 98.2198 29.6933 97.4731 29.08C96.7265 28.44 96.2865 27.5333 96.1531 26.36H95.9531C95.5798 27.72 94.8331 28.7467 93.7131 29.44C92.6198 30.1333 91.2731 30.48 89.6731 30.48C87.6731 30.48 86.0598 29.9467 84.8331 28.88C83.6331 27.7867 83.0331 26.2667 83.0331 24.32C83.0331 22.16 83.8198 20.56 85.3931 19.52C86.9665 18.48 89.2731 17.96 92.3131 17.96H95.6331V16.92C95.6331 15.6933 95.3398 14.7733 94.7531 14.16C94.1931 13.52 93.2331 13.2 91.8731 13.2C90.6198 13.2 89.6064 13.44 88.8331 13.92C88.0598 14.4 87.3931 15.0267 86.8331 15.8L83.5931 12.92C84.2865 11.7467 85.3664 10.7867 86.8331 10.04C88.3264 9.26667 90.2331 8.88 92.5531 8.88C95.3798 8.88 97.5798 9.53333 99.1531 10.84C100.753 12.12 101.553 14.0667 101.553 16.68V25.72H103.833V30H100.433ZM91.9131 26.6C92.9531 26.6 93.8331 26.3467 94.5531 25.84C95.2731 25.3333 95.6331 24.6 95.6331 23.64V21.16H92.4731C90.0465 21.16 88.8331 21.9733 88.8331 23.6V24.4C88.8331 25.12 89.1131 25.6667 89.6731 26.04C90.2331 26.4133 90.9798 26.6 91.9131 26.6Z" fill="#878992"/>
<path d="M120.697 30.48C118.404 30.48 116.404 30.1333 114.697 29.44C113.017 28.7467 111.751 27.8 110.897 26.6L114.217 23.52C115.017 24.4 115.951 25.0933 117.017 25.6C118.111 26.08 119.351 26.32 120.737 26.32C121.911 26.32 122.831 26.1467 123.497 25.8C124.164 25.4267 124.497 24.8667 124.497 24.12C124.497 23.5333 124.271 23.1333 123.817 22.92C123.364 22.68 122.737 22.4933 121.937 22.36L118.617 21.84C117.684 21.7067 116.817 21.5067 116.017 21.24C115.217 20.9467 114.524 20.56 113.937 20.08C113.351 19.6 112.884 19.0133 112.537 18.32C112.191 17.6267 112.017 16.7867 112.017 15.8C112.017 13.64 112.844 11.9467 114.497 10.72C116.151 9.49334 118.471 8.88 121.457 8.88C123.484 8.88 125.204 9.16 126.617 9.72C128.057 10.2533 129.204 11.0267 130.057 12.04L127.097 15.4C126.484 14.7333 125.697 14.1733 124.737 13.72C123.777 13.2667 122.617 13.04 121.257 13.04C118.964 13.04 117.817 13.7333 117.817 15.12C117.817 15.7333 118.044 16.16 118.497 16.4C118.951 16.6133 119.577 16.7867 120.377 16.92L123.657 17.44C124.591 17.5733 125.457 17.7867 126.257 18.08C127.057 18.3467 127.751 18.72 128.337 19.2C128.951 19.68 129.431 20.2667 129.777 20.96C130.124 21.6533 130.298 22.4933 130.298 23.48C130.298 25.64 129.458 27.3467 127.777 28.6C126.124 29.8533 123.764 30.48 120.697 30.48Z" fill="#878992"/>
<path d="M167.986 2.08H177.786C180.533 2.08 182.626 2.74667 184.066 4.08C185.533 5.41333 186.266 7.22667 186.266 9.52C186.266 11.12 185.866 12.4 185.066 13.36C184.293 14.2933 183.173 14.9733 181.706 15.4V15.64C183.44 16.0667 184.773 16.8133 185.706 17.88C186.666 18.9467 187.146 20.4267 187.146 22.32C187.146 24.6667 186.4 26.5333 184.906 27.92C183.44 29.3067 181.373 30 178.706 30H167.986V2.08ZM176.866 25.8C178.306 25.8 179.36 25.56 180.026 25.08C180.693 24.6 181.026 23.72 181.026 22.44V21.28C181.026 20 180.693 19.12 180.026 18.64C179.36 18.16 178.306 17.92 176.866 17.92H173.826V25.8H176.866ZM176.106 13.92C177.52 13.92 178.546 13.6933 179.186 13.24C179.826 12.76 180.146 11.9067 180.146 10.68V9.48C180.146 8.25333 179.826 7.41333 179.186 6.96C178.546 6.50667 177.52 6.28 176.106 6.28H173.826V13.92H176.106Z" fill="#878992"/>
<path d="M212.371 30C211.144 30 210.157 29.6933 209.411 29.08C208.664 28.44 208.224 27.5333 208.091 26.36H207.891C207.517 27.72 206.771 28.7467 205.651 29.44C204.557 30.1333 203.211 30.48 201.611 30.48C199.611 30.48 197.997 29.9467 196.771 28.88C195.571 27.7867 194.971 26.2667 194.971 24.32C194.971 22.16 195.757 20.56 197.331 19.52C198.904 18.48 201.211 17.96 204.251 17.96H207.571V16.92C207.571 15.6933 207.277 14.7733 206.691 14.16C206.131 13.52 205.171 13.2 203.811 13.2C202.557 13.2 201.544 13.44 200.771 13.92C199.997 14.4 199.331 15.0267 198.771 15.8L195.531 12.92C196.224 11.7467 197.304 10.7867 198.771 10.04C200.264 9.26667 202.171 8.88 204.491 8.88C207.317 8.88 209.517 9.53333 211.091 10.84C212.691 12.12 213.491 14.0667 213.491 16.68V25.72H215.771V30H212.371ZM203.851 26.6C204.891 26.6 205.771 26.3467 206.491 25.84C207.211 25.3333 207.571 24.6 207.571 23.64V21.16H204.411C201.984 21.16 200.771 21.9733 200.771 23.6V24.4C200.771 25.12 201.051 25.6667 201.611 26.04C202.171 26.4133 202.917 26.6 203.851 26.6Z" fill="#878992"/>
<path d="M223.835 25.4H228.595V13.96H223.835V9.36H234.515V15.2H234.795C234.982 14.4533 235.235 13.7333 235.555 13.04C235.902 12.32 236.328 11.6933 236.835 11.16C237.368 10.6 238.008 10.16 238.755 9.84C239.502 9.52 240.382 9.36 241.395 9.36H243.355V14.8H238.955C237.488 14.8 236.382 15.24 235.635 16.12C234.888 16.9733 234.515 18.0267 234.515 19.28V25.4H241.315V30H223.835V25.4Z" fill="#878992"/>
<path d="M261.699 30.48C260.073 30.48 258.606 30.24 257.299 29.76C256.019 29.2533 254.926 28.5333 254.019 27.6C253.139 26.6667 252.459 25.5333 251.979 24.2C251.499 22.8667 251.259 21.36 251.259 19.68C251.259 18 251.499 16.4933 251.979 15.16C252.459 13.8267 253.139 12.6933 254.019 11.76C254.926 10.8267 256.019 10.12 257.299 9.64C258.606 9.13334 260.059 8.88 261.659 8.88C263.926 8.88 265.739 9.34667 267.099 10.28C268.486 11.1867 269.539 12.4 270.259 13.92L265.699 16.4C265.326 15.6 264.833 14.9333 264.219 14.4C263.633 13.8667 262.779 13.6 261.659 13.6C260.299 13.6 259.246 14 258.499 14.8C257.779 15.5733 257.419 16.64 257.419 18V21.36C257.419 22.72 257.779 23.8 258.499 24.6C259.246 25.3733 260.326 25.76 261.739 25.76C262.886 25.76 263.779 25.4933 264.419 24.96C265.086 24.4267 265.646 23.7333 266.099 22.88L270.579 25.44C269.833 26.96 268.739 28.1867 267.299 29.12C265.886 30.0267 264.019 30.48 261.699 30.48Z" fill="#878992"/>
<path d="M289.404 30.48C285.937 30.48 283.31 29.52 281.524 27.6C279.737 25.68 278.844 23.0667 278.844 19.76C278.844 18.08 279.07 16.5733 279.524 15.24C280.004 13.88 280.67 12.7333 281.524 11.8C282.404 10.84 283.457 10.12 284.684 9.64C285.937 9.13334 287.337 8.88 288.884 8.88C290.43 8.88 291.817 9.13334 293.044 9.64C294.27 10.12 295.31 10.8133 296.164 11.72C297.017 12.6267 297.67 13.7333 298.124 15.04C298.604 16.32 298.844 17.76 298.844 19.36V21.12H284.724V21.48C284.724 22.8133 285.137 23.8933 285.964 24.72C286.79 25.52 288.004 25.92 289.604 25.92C290.83 25.92 291.884 25.6933 292.764 25.24C293.644 24.76 294.404 24.1333 295.044 23.36L298.244 26.84C297.444 27.8267 296.324 28.68 294.884 29.4C293.444 30.12 291.617 30.48 289.404 30.48ZM288.924 13.12C287.644 13.12 286.617 13.52 285.844 14.32C285.097 15.0933 284.724 16.1467 284.724 17.48V17.8H293.044V17.48C293.044 16.12 292.67 15.0533 291.924 14.28C291.204 13.5067 290.204 13.12 288.924 13.12Z" fill="#878992"/>
<path d="M307.548 25.4H313.868V5H307.548V0.400002H319.788V25.4H326.108V30H307.548V25.4Z" fill="#878992"/>
<path d="M344.812 30.48C343.212 30.48 341.772 30.24 340.492 29.76C339.212 29.2533 338.119 28.5333 337.212 27.6C336.332 26.6667 335.652 25.5333 335.172 24.2C334.692 22.8667 334.452 21.36 334.452 19.68C334.452 18 334.692 16.4933 335.172 15.16C335.652 13.8267 336.332 12.6933 337.212 11.76C338.119 10.8267 339.212 10.12 340.492 9.64C341.772 9.13334 343.212 8.88 344.812 8.88C346.413 8.88 347.853 9.13334 349.133 9.64C350.413 10.12 351.492 10.8267 352.372 11.76C353.279 12.6933 353.972 13.8267 354.452 15.16C354.932 16.4933 355.172 18 355.172 19.68C355.172 21.36 354.932 22.8667 354.452 24.2C353.972 25.5333 353.279 26.6667 352.372 27.6C351.492 28.5333 350.413 29.2533 349.133 29.76C347.853 30.24 346.413 30.48 344.812 30.48ZM344.812 26.08C346.146 26.08 347.186 25.6667 347.932 24.84C348.679 24.0133 349.052 22.84 349.052 21.32V18.04C349.052 16.52 348.679 15.3467 347.932 14.52C347.186 13.6933 346.146 13.28 344.812 13.28C343.479 13.28 342.439 13.6933 341.693 14.52C340.946 15.3467 340.572 16.52 340.572 18.04V21.32C340.572 22.84 340.946 24.0133 341.693 24.84C342.439 25.6667 343.479 26.08 344.812 26.08Z" fill="#878992"/>
<path d="M372.557 30.48C370.264 30.48 368.264 30.1333 366.557 29.44C364.877 28.7467 363.61 27.8 362.757 26.6L366.077 23.52C366.877 24.4 367.81 25.0933 368.877 25.6C369.97 26.08 371.21 26.32 372.597 26.32C373.77 26.32 374.69 26.1467 375.357 25.8C376.024 25.4267 376.357 24.8667 376.357 24.12C376.357 23.5333 376.13 23.1333 375.677 22.92C375.224 22.68 374.597 22.4933 373.797 22.36L370.477 21.84C369.544 21.7067 368.677 21.5067 367.877 21.24C367.077 20.9467 366.384 20.56 365.797 20.08C365.21 19.6 364.744 19.0133 364.397 18.32C364.05 17.6267 363.877 16.7867 363.877 15.8C363.877 13.64 364.704 11.9467 366.357 10.72C368.01 9.49334 370.33 8.88 373.317 8.88C375.344 8.88 377.064 9.16 378.477 9.72C379.917 10.2533 381.064 11.0267 381.917 12.04L378.957 15.4C378.344 14.7333 377.557 14.1733 376.597 13.72C375.637 13.2667 374.477 13.04 373.117 13.04C370.824 13.04 369.677 13.7333 369.677 15.12C369.677 15.7333 369.904 16.16 370.357 16.4C370.81 16.6133 371.437 16.7867 372.237 16.92L375.517 17.44C376.45 17.5733 377.317 17.7867 378.117 18.08C378.917 18.3467 379.61 18.72 380.197 19.2C380.81 19.68 381.29 20.2667 381.637 20.96C381.984 21.6533 382.157 22.4933 382.157 23.48C382.157 25.64 381.317 27.3467 379.637 28.6C377.984 29.8533 375.624 30.48 372.557 30.48Z" fill="#878992"/>
</svg>
