<svg width="25" height="25" viewBox="0 0 25 25" fill="none" xmlns="http://www.w3.org/2000/svg">
<circle cx="12.5" cy="12.5" r="11.5" stroke="#2634B0" stroke-width="2"/>
<path d="M7.19365 6.29395L7.84971 6.12994C8.00487 6.09115 8.16421 6.07153 8.32414 6.07153C8.74739 6.07153 9.15923 6.20881 9.49783 6.46276L9.6174 6.55244C9.97506 6.82068 10.2424 7.19161 10.3838 7.61574L10.3955 7.65094C10.624 8.33629 10.4894 9.09072 10.0381 9.65484L9.99468 9.70913C9.7207 10.0516 9.57143 10.4771 9.57143 10.9157C9.57143 11.2519 9.65915 11.5822 9.82592 11.874L10.3874 12.8565C10.6332 13.2868 10.9818 13.6495 11.4021 13.9121L12.7298 14.742C12.9997 14.9107 13.3116 15.0001 13.6299 15.0001C14.0803 15.0001 14.5123 14.8212 14.8307 14.5027L15.0375 14.2959C15.3489 13.9846 15.7712 13.8096 16.2116 13.8096C16.5394 13.8096 16.8598 13.9067 17.1326 14.0885L17.3833 14.2556C18.0809 14.7207 18.5 15.5038 18.5 16.3423V16.5958C18.5 17.0986 18.3003 17.5808 17.9448 17.9363C17.5427 18.3384 16.9814 18.5387 16.4156 18.4821L14.8129 18.3219C14.4952 18.2901 14.1847 18.2078 13.893 18.0782L12.0556 17.2616C11.7898 17.1435 11.5426 16.9873 11.3217 16.7979L9.74664 15.4479C9.63001 15.3479 9.52122 15.2391 9.42125 15.1225L8.02606 13.4948C7.86643 13.3086 7.73025 13.1035 7.62055 12.8841L6.69059 11.0241C6.6271 10.8972 6.57271 10.7658 6.52782 10.6312L6.15395 9.50957C6.05198 9.20367 6 8.88334 6 8.56089V8.36826C6 7.84099 6.15607 7.32552 6.44855 6.88681L6.53375 6.759C6.57464 6.69766 6.62149 6.64052 6.67362 6.58839C6.81708 6.44493 6.99683 6.34316 7.19365 6.29395Z" fill="#2634B0"/>
</svg>
