<svg width="25" height="25" viewBox="0 0 25 25" fill="none" xmlns="http://www.w3.org/2000/svg">
<circle cx="12.5" cy="12.5" r="11.5" stroke="#2634B0" stroke-width="2"/>
<path d="M17.6785 7.14293L17.5 7.21342M17.5 7.21342L4.59104 12.309C4.29901 12.4243 4.10712 12.7064 4.10712 13.0203V13.0203C4.10712 13.3495 4.31774 13.6417 4.63 13.7458L6.32384 14.3104C6.62974 14.4124 6.95007 14.4644 7.27252 14.4644H7.74081C8.39556 14.4644 9.03233 14.2502 9.55397 13.8544L13.8003 10.633C13.8852 10.5686 13.9801 10.5186 14.0812 10.4849L14.3786 10.3858C14.4334 10.3675 14.4933 10.3717 14.5451 10.3976V10.3976C14.6798 10.465 14.7073 10.6455 14.5987 10.7499L10.5017 14.6894C10.3018 14.8816 10.22 15.166 10.2873 15.4349V15.4349C10.3323 15.6152 10.4407 15.7732 10.5927 15.8801L14.656 18.7395C14.9961 18.9788 15.4017 19.1072 15.8175 19.1072H16.1714C16.3391 19.1072 16.503 19.0576 16.6425 18.9646V18.9646C16.8469 18.8283 16.9823 18.6102 17.0137 18.3666L18.379 7.78606C18.3881 7.71508 18.3839 7.643 18.3666 7.57356V7.57356C18.2848 7.2464 17.9397 7.06008 17.6213 7.17111L17.5 7.21342Z" stroke="#2634B0"/>
</svg>
