<svg width="44" height="44" viewBox="0 0 44 44" fill="none" xmlns="http://www.w3.org/2000/svg">
<path d="M22.783 3.25755C33.375 13.5078 33.375 30.4922 22.783 40.7424L25.217 43.2576C37.2303 31.6318 37.2303 12.3682 25.217 0.742446L22.783 3.25755ZM3.25755 21.217C13.5078 10.625 30.4922 10.625 40.7424 21.217L43.2576 18.783C31.6318 6.7697 12.3682 6.7697 0.742446 18.783L3.25755 21.217ZM21.217 40.7424C10.625 30.4922 10.625 13.5078 21.217 3.25755L18.783 0.742446C6.7697 12.3682 6.7697 31.6318 18.783 43.2576L21.217 40.7424ZM40.7424 23.4497C30.4922 34.0416 13.5078 34.0416 3.25755 23.4497L0.742447 25.8837C12.3682 37.897 31.6318 37.897 43.2576 25.8837L40.7424 23.4497ZM40.25 22C40.25 32.0792 32.0792 40.25 22 40.25V43.75C34.0122 43.75 43.75 34.0122 43.75 22H40.25ZM22 40.25C11.9208 40.25 3.75 32.0792 3.75 22H0.25C0.25 34.0122 9.98781 43.75 22 43.75V40.25ZM3.75 22C3.75 11.9208 11.9208 3.75 22 3.75V0.25C9.98781 0.25 0.25 9.98781 0.25 22H3.75ZM22 3.75C32.0792 3.75 40.25 11.9208 40.25 22H43.75C43.75 9.98781 34.0122 0.25 22 0.25V3.75ZM20.25 2V42H23.75V2H20.25ZM2 23.75H42V20.25H2V23.75Z" fill="#B3B4BF"/>
</svg>
