<svg width="27" height="27" viewBox="0 0 27 27" fill="none" xmlns="http://www.w3.org/2000/svg">
<path d="M1.39393 25.769L0.397389 25.686L0.299244 26.8637L1.47698 26.7656L1.39393 25.769ZM8.89393 25.144L9.16865 24.1825L8.99296 24.1323L8.81088 24.1475L8.89393 25.144ZM2.01893 18.269L3.01548 18.3521L3.03122 18.1632L2.97676 17.9817L2.01893 18.269ZM2.90063 17.9613C1.86848 15.5091 1.71854 12.7749 2.47635 10.2245L0.559196 9.65482C-0.330409 12.6487 -0.154391 15.8585 1.05726 18.7372L2.90063 17.9613ZM2.47635 10.2245C3.23416 7.6741 4.85284 5.46538 7.05658 3.97466L5.93598 2.31808C3.34899 4.06805 1.4488 6.6609 0.559196 9.65482L2.47635 10.2245ZM7.05658 3.97466C9.26032 2.48395 11.9128 1.80346 14.562 2.04916L14.7467 0.0577053C11.6367 -0.230721 8.52298 0.568108 5.93598 2.31808L7.05658 3.97466ZM14.562 2.04916C17.2112 2.29486 19.6933 3.45153 21.5853 5.3221L22.9914 3.89985C20.7703 1.70397 17.8566 0.346132 14.7467 0.0577053L14.562 2.04916ZM21.5853 5.3221C23.4773 7.19267 24.6621 9.6614 24.938 12.3076L26.9272 12.1003C26.6034 8.99381 25.2124 6.09574 22.9914 3.89985L21.5853 5.3221ZM24.938 12.3076C25.2139 14.9539 24.5636 17.6139 23.0981 19.8345L24.7674 20.9361C26.4877 18.3294 27.2511 15.2067 26.9272 12.1003L24.938 12.3076ZM23.0981 19.8345C21.6326 22.0551 19.4425 23.6988 16.9009 24.4856L17.4924 26.3962C20.4759 25.4725 23.047 23.5429 24.7674 20.9361L23.0981 19.8345ZM16.9009 24.4856C14.3593 25.2724 11.6235 25.1537 9.15973 24.1495L8.4049 26.0016C11.2972 27.1804 14.5088 27.3198 17.4924 26.3962L16.9009 24.4856ZM1.47698 26.7656L8.97697 26.1406L8.81088 24.1475L1.31089 24.7725L1.47698 26.7656ZM8.61921 26.1056L10.8067 26.7306L11.3561 24.8075L9.16865 24.1825L8.61921 26.1056ZM0.123609 15.4314L1.06111 18.5564L2.97676 17.9817L2.03926 14.8567L0.123609 15.4314ZM1.02239 18.186L0.397389 25.686L2.39048 25.8521L3.01548 18.3521L1.02239 18.186Z" fill="#2634B0"/>
<path d="M8.26507 7.29395L8.92112 7.12994C9.07628 7.09115 9.23562 7.07153 9.39556 7.07153C9.81881 7.07153 10.2306 7.20881 10.5692 7.46276L10.6888 7.55244C11.0465 7.82068 11.3138 8.19161 11.4552 8.61574L11.4669 8.65094C11.6954 9.33629 11.5608 10.0907 11.1095 10.6548L11.0661 10.7091C10.7921 11.0516 10.6428 11.4771 10.6428 11.9157C10.6428 12.2519 10.7306 12.5822 10.8973 12.874L11.4588 13.8565C11.7046 14.2868 12.0533 14.6495 12.4735 14.9121L13.8013 15.742C14.0712 15.9107 14.383 16.0001 14.7013 16.0001C15.1517 16.0001 15.5837 15.8212 15.9021 15.5027L16.1089 15.2959C16.4203 14.9846 16.8426 14.8096 17.283 14.8096C17.6108 14.8096 17.9312 14.9067 18.204 15.0885L18.4547 15.2556C19.1523 15.7207 19.5714 16.5038 19.5714 17.3423V17.5958C19.5714 18.0986 19.3717 18.5808 19.0162 18.9363C18.6141 19.3384 18.0528 19.5387 17.487 19.4821L15.8843 19.3219C15.5666 19.2901 15.2561 19.2078 14.9644 19.0782L13.1271 18.2616C12.8612 18.1435 12.614 17.9873 12.3931 17.7979L10.8181 16.4479C10.7014 16.3479 10.5926 16.2391 10.4927 16.1225L9.09747 14.4948C8.93784 14.3086 8.80166 14.1035 8.69196 13.8841L7.762 12.0241C7.69851 11.8972 7.64412 11.7658 7.59923 11.6312L7.22536 10.5096C7.12339 10.2037 7.07141 9.88334 7.07141 9.56089V9.36826C7.07141 8.84099 7.22748 8.32552 7.51996 7.88681L7.60517 7.759C7.64605 7.69766 7.6929 7.64052 7.74503 7.58839C7.88849 7.44493 8.06824 7.34316 8.26507 7.29395Z" fill="#2634B0"/>
</svg>
